<svg width="32" height="30" viewBox="0 0 32 30" fill="none" xmlns="http://www.w3.org/2000/svg">
  <path fill-rule="evenodd" clip-rule="evenodd"
    d="M31.085 17.0367L17.508 23.1397C16.209 23.7057 15.691 23.7057 14.491 23.1397L0.915 17.0367C0.194 16.6547 0 15.2377 0 14.4647C0.906 14.9827 2.181 15.5597 2.133 15.5297L16 21.9227L29.867 15.5297C29.891 15.5247 31.127 14.9017 32 14.4647C32 15.2557 31.754 16.7247 31.085 17.0367ZM31.085 10.6437L17.508 16.7467C16.209 17.3127 15.691 17.3127 14.491 16.7467L0.915 10.6437C-0.151 10.0777 -0.118 8.29571 0.915 7.63071L14.491 0.461708C15.691 -0.137292 16.442 -0.170292 17.508 0.461708L31.085 7.63071C32.118 8.19571 32.085 10.1777 31.085 10.6437ZM16 1.67871L2.133 9.13671L16 14.9807L29.867 9.13671L16 1.67871ZM16 1.67871C16.074 1.70271 16.1 1.79571 16 1.67871V1.67871ZM16 28.3157L29.867 21.9227C29.891 21.9177 31.127 21.2947 32 20.8577C32 21.6487 31.754 23.1177 31.085 23.4297L17.508 29.5327C16.209 30.0987 15.691 30.0987 14.491 29.5327L0.915 23.4297C0.194 23.0477 0 21.6307 0 20.8577C0.906 21.3757 2.181 21.9527 2.133 21.9227L16 28.3157Z"
    fill="white" />
</svg>
