<svg width="32" height="32" viewBox="0 0 32 32" fill="none" xmlns="http://www.w3.org/2000/svg">
  <path fill-rule="evenodd" clip-rule="evenodd"
    d="M30 2H32V0H0V2H2C2 3.623 2 21 2 21C2 23.37 3.644 25 6 25H12L8 32L11.012 31.987L15 25H17L20.988 31.987L24 32L20 25H26C28.356 25 30 23.37 30 21C30 21 30 3.733 30 2ZM28.015 1.99H3.985C3.985 3.256 4 21 4 21C4 22.229 4.793 23 6 23H26C27.206 23 28 22.229 28 21C28 21 28.015 4.007 28.015 1.99ZM22 20C21.448 20 21 19.552 21 19V10C21 9.448 21.448 9 22 9C22.552 9 23 9.448 23 10V19C23 19.552 22.552 20 22 20ZM16 20C15.448 20 15 19.552 15 19V7C15 6.448 15.448 6 16 6C16.552 6 17 6.448 17 7V19C17 19.552 16.552 20 16 20ZM10 20C9.448 20 9 19.552 9 19V15C9 14.448 9.448 14 10 14C10.552 14 11 14.448 11 15V19C11 19.552 10.552 20 10 20Z"
    fill="white" />
</svg>
