<svg width="32" height="32" viewBox="0 0 32 32" fill="none" xmlns="http://www.w3.org/2000/svg">
  <path fill-rule="evenodd" clip-rule="evenodd"
    d="M28 29C28 29 22.612 30.5 16.992 32C16.318 32 15.64 32 14.967 32C9.393 30.5 4 29 4 29C1.884 28.312 0 27.209 0 25V4C0 1.791 1.791 0 4 0C4 0 9.955 1.656 14.967 3C15.627 3 16.291 3.026 16.95 3C22.211 1.594 28 0 28 0C30.209 0 32 1.791 32 4V25C32 27.209 30.053 28.469 28 29ZM4 2C2.895 2 2 2.895 2 4V25C2 26.105 2.864 26.688 4 27C4 27 9.538 28.53 15 29.998V5L4 2ZM30 4C30 2.895 29.105 2 28 2L17 5V29.976C22.557 28.515 28 27 28 27C29.073 26.656 30 26.105 30 25V4Z"
    fill="white" />
</svg>
