<svg width="32" height="32" viewBox="0 0 32 32" fill="none" xmlns="http://www.w3.org/2000/svg">
  <path fill-rule="evenodd" clip-rule="evenodd"
    d="M30 24L27.739 23.397C25.478 28.463 20.406 32 14.5 32C6.492 32 0 25.508 0 17.5C0 10.027 5.721 3.789 13 3V0H15C24.005 0 32 7.419 32 16.572C32 19.657 31.093 22.205 30 24ZM13 18.428V5C6.917 5.878 2 11.21 2 17.5C2 24.404 7.596 30 14.5 30C19.163 30 24.017 27.128 25.709 22.856L13 18.428ZM15 2V17L28.551 21.614C29.351 20.19 29.889 18.629 29.889 16.572C29.889 8.682 22.779 1.96 15 2Z"
    fill="white" />
</svg>
