<svg width="19" height="19" viewBox="0 0 19 19" fill="none" xmlns="http://www.w3.org/2000/svg">
  <path fill-rule="evenodd" clip-rule="evenodd"
    d="M9.5 19C4.25303 19 0 14.747 0 9.5C0 4.25303 4.25303 0 9.5 0C14.7464 0 19 4.25303 19 9.5C19 14.747 14.7464 19 9.5 19ZM9.5 1.1875C4.90912 1.1875 1.1875 4.90912 1.1875 9.5C1.1875 14.0909 4.90912 17.8125 9.5 17.8125C14.0909 17.8125 17.8125 14.0909 17.8125 9.5C17.8125 4.90912 14.0909 1.1875 9.5 1.1875ZM13.0625 10.0938H10.0938V13.0625C10.0938 13.3903 9.82775 13.6562 9.5 13.6562C9.17225 13.6562 8.90625 13.3903 8.90625 13.0625V10.0938H5.9375C5.60975 10.0938 5.34375 9.82775 5.34375 9.5C5.34375 9.17225 5.60975 8.90625 5.9375 8.90625H8.90625V5.9375C8.90625 5.60975 9.17225 5.34375 9.5 5.34375C9.82775 5.34375 10.0938 5.60975 10.0938 5.9375V8.90625H13.0625C13.3903 8.90625 13.6562 9.17225 13.6562 9.5C13.6562 9.82775 13.3903 10.0938 13.0625 10.0938Z"
    fill="#E24B4B" />
</svg>
