<svg width="32" height="32" viewBox="0 0 32 32" fill="none" xmlns="http://www.w3.org/2000/svg">
  <path fill-rule="evenodd" clip-rule="evenodd"
    d="M28 20H20V28C20 30.209 18.209 32 16 32C13.791 32 12 30.209 12 28V20H4C1.791 20 0 18.209 0 16C0 13.791 1.791 12 4 12H12V4C12 1.791 13.791 0 16 0C18.209 0 20 1.791 20 4V12H28C30.209 12 32 13.791 32 16C32 18.209 30.209 20 28 20ZM14 28C14 29.105 14.895 30 16 30C17.105 30 18 29.105 18 28V18H28C29.105 18 30 17.105 30 16C30 14.895 29.105 14 28 14H18V4C18 2.896 17.105 2 16 2C14.895 2 14 2.896 14 4V14H4C2.895 14 2 14.895 2 16C2 17.105 2.895 18 4 18H14V28Z"
    fill="white" />
</svg>
