<svg width="31" height="26" viewBox="0 0 31 26" fill="none" xmlns="http://www.w3.org/2000/svg">
  <path
    d="M18.2837 0.837552C18.7133 0.837552 19.0725 0.981522 19.3655 1.27696L30.0112 11.9186C30.3044 12.2142 30.4498 12.5734 30.4498 13C30.4498 13.4309 30.3044 13.79 30.0112 14.0814L19.3655 24.7271C19.0723 25.0229 18.7133 25.1665 18.2837 25.1665C17.8485 25.1665 17.4847 25.0229 17.197 24.7356C16.908 24.444 16.7631 24.0806 16.7631 23.6457C16.7631 23.219 16.9101 22.8599 17.2021 22.5643L25.2593 14.5208H1.55493C1.13518 14.5208 0.77749 14.3728 0.479613 14.0771C0.182142 13.7774 0.0335083 13.4226 0.0335083 13C0.0335083 12.5817 0.182142 12.2228 0.479613 11.9269C0.777692 11.6272 1.13539 11.4792 1.55473 11.4792H25.2593L17.2021 3.43571C16.9101 3.14432 16.7631 2.78095 16.7631 2.35431C16.7631 1.91915 16.908 1.55578 17.197 1.26865C17.4847 0.977061 17.8485 0.833496 18.2837 0.833496V0.837552Z"
    fill="white" />
</svg>
