<svg width="10" height="10" viewBox="0 0 10 10" fill="none" xmlns="http://www.w3.org/2000/svg">
  <path fill-rule="evenodd" clip-rule="evenodd"
    d="M5 10C2.23844 10 0 7.76156 0 5C0 2.23875 2.23844 0 5 0C7.76125 0 10 2.23875 10 5C10 7.76156 7.76125 10 5 10ZM5 0.625C2.58375 0.625 0.625 2.58375 0.625 5C0.625 7.41625 2.58375 9.375 5 9.375C7.41625 9.375 9.375 7.41625 9.375 5C9.375 2.58375 7.41625 0.625 5 0.625ZM8.125 5.3125V4.6875H8.75V5.3125H8.125ZM7.24906 7.56L6.80719 7.11812L7.24906 6.67625L7.69125 7.11812L7.24906 7.56ZM6.89875 2.58531L7.33125 2.15188L7.76344 2.58531L7.33125 3.01875L6.89875 2.58531ZM4.6875 8.125H5.3125V8.75H4.6875V8.125ZM5 5.32H2.1875C2.015 5.32 1.875 5.18 1.875 5.0075C1.875 4.835 2.015 4.695 2.1875 4.695H4.6875V1.5625C4.6875 1.39 4.8275 1.25 5 1.25C5.1725 1.25 5.3125 1.39 5.3125 1.5625V5.0075C5.3125 5.18 5.1725 5.32 5 5.32ZM2.145 2.60094L2.58687 2.15906L3.02875 2.60094L2.58687 3.04281L2.145 2.60094ZM2.96875 7.135L2.53656 7.56844L2.10406 7.135L2.53656 6.70156L2.96875 7.135Z"
    fill="#0089FF" />
</svg>
