<svg width="27" height="27" viewBox="0 0 27 27" fill="none" xmlns="http://www.w3.org/2000/svg">
  <path fill-rule="evenodd" clip-rule="evenodd"
    d="M13.5 27C6.04378 27 0 20.9562 0 13.5C0 6.04378 6.04378 0 13.5 0C20.9554 0 27 6.04378 27 13.5C27 20.9562 20.9554 27 13.5 27ZM13.5 1.6875C6.97613 1.6875 1.6875 6.97613 1.6875 13.5C1.6875 20.0239 6.97613 25.3125 13.5 25.3125C20.0239 25.3125 25.3125 20.0239 25.3125 13.5C25.3125 6.97613 20.0239 1.6875 13.5 1.6875ZM14.6981 13.5051L18.2731 17.08C18.6022 17.4091 18.6022 17.9432 18.2731 18.2731C17.9432 18.6022 17.4091 18.6022 17.08 18.2731L13.5042 14.6981L9.90562 18.2976C9.57319 18.6292 9.03487 18.6292 8.70244 18.2976C8.37084 17.9651 8.37084 17.4268 8.70244 17.0944L12.3019 13.4949L8.72691 9.91997C8.397 9.59091 8.397 9.05681 8.72691 8.72691C9.05681 8.39784 9.59091 8.39784 9.91997 8.72691L13.4949 12.3019L17.1214 8.67628C17.453 8.34384 17.9921 8.34384 18.3237 8.67628C18.6562 9.00788 18.6562 9.54703 18.3237 9.87862L14.6981 13.5051Z"
    fill="#C6C6C6" />
</svg>
