<svg width="39" height="41" viewBox="0 0 39 41" fill="none" xmlns="http://www.w3.org/2000/svg">
  <path fill-rule="evenodd" clip-rule="evenodd"
    d="M12.8297 40.0929H4.81115C2.15379 40.0929 0 37.9391 0 35.2818V32.0743C0 30.5436 0.724879 29.1965 1.84107 28.3208C3.4544 30.5997 5.97705 32.0743 8.82043 32.0743C11.6638 32.0743 14.1865 30.5997 15.799 28.3208C16.916 29.1965 17.6409 30.5436 17.6409 32.0743V35.2818C17.6409 37.9391 15.4871 40.0929 12.8297 40.0929ZM8.82043 30.4706C4.8344 30.4706 1.60372 26.8807 1.60372 22.452C1.60372 18.0234 4.8344 14.4335 8.82043 14.4335C12.8057 14.4335 16.0372 18.0234 16.0372 22.452C16.0372 26.8807 12.8057 30.4706 8.82043 30.4706Z"
    fill="#E24B4B" />
  <path fill-rule="evenodd" clip-rule="evenodd"
    d="M33.6781 40.0929H25.6595C23.0022 40.0929 20.8484 37.9391 20.8484 35.2818V32.0743C20.8484 30.5436 21.5733 29.1965 22.6895 28.3208C24.3028 30.5997 26.8254 32.0743 29.6688 32.0743C32.5122 32.0743 35.0349 30.5997 36.6474 28.3208C37.7644 29.1965 38.4893 30.5436 38.4893 32.0743V35.2818C38.4893 37.9391 36.3355 40.0929 33.6781 40.0929ZM29.6688 30.4706C25.6828 30.4706 22.4521 26.8807 22.4521 22.452C22.4521 18.0234 25.6828 14.4335 29.6688 14.4335C33.6541 14.4335 36.8855 18.0234 36.8855 22.452C36.8855 26.8807 33.6541 30.4706 29.6688 30.4706Z"
    fill="#E24B4B" />
  <path fill-rule="evenodd" clip-rule="evenodd"
    d="M19.2446 16.0372C15.2585 16.0372 12.0278 12.4472 12.0278 8.01858C12.0278 3.58992 15.2585 0 19.2446 0C23.2298 0 26.4613 3.58992 26.4613 8.01858C26.4613 12.4472 23.2298 16.0372 19.2446 16.0372Z"
    fill="#E24B4B" />
</svg>
