<svg width="24" height="24" viewBox="0 0 24 24" fill="none" xmlns="http://www.w3.org/2000/svg">
  <path fill-rule="evenodd" clip-rule="evenodd"
    d="M12 21C11.2327 21 10.4843 20.9303 9.75675 20.8102L4.5 24V18.6893C1.75875 16.7648 0 13.8142 0 10.5C0 4.701 5.37225 0 12 0C18.627 0 24 4.701 24 10.5C24 16.299 18.627 21 12 21ZM18 12C17.1712 12 16.5 11.3287 16.5 10.5C16.5 9.67125 17.1712 9 18 9C18.8288 9 19.5 9.67125 19.5 10.5C19.5 11.3287 18.8288 12 18 12ZM12 12C11.1713 12 10.5 11.3287 10.5 10.5C10.5 9.67125 11.1713 9 12 9C12.828 9 13.5 9.67125 13.5 10.5C13.5 11.3287 12.828 12 12 12ZM6 12C5.17125 12 4.5 11.3287 4.5 10.5C4.5 9.67125 5.17125 9 6 9C6.82875 9 7.5 9.67125 7.5 10.5C7.5 11.3287 6.82875 12 6 12Z"
    fill="#E24B4B" />
</svg>
