<svg width="32" height="32" viewBox="0 0 32 32" fill="none" xmlns="http://www.w3.org/2000/svg">
  <path fill-rule="evenodd" clip-rule="evenodd"
    d="M28 14C28 6.868 22.627 2 16 2C9.372 2 4 7.336 4 14C4.219 14 8 14 8 14C10.209 14 12 15.791 12 18V24C12 26.149 10.125 27.906 8 28C8.004 28.005 4 28 4 28C1.791 28 0 26.209 0 24V18C0 16.498 0.838 15.205 2.062 14.521C2.034 14.183 2 13.846 2 13.5C2 6.044 8.268 0 16 0C23.732 0 30 6.044 30 13.5C30 13.845 29.966 14.183 29.938 14.521C31.162 15.205 32 16.498 32 18V24C32 26.209 30.209 28 28 28V31C28 31.552 27.552 32 27 32C26.448 32 26 31.552 26 31V28C26 28 23.996 28.006 24 28C21.875 27.906 20 26.149 20 24V18C20 15.791 21.791 14 24 14C24 14 27.781 14 28 14ZM7.127 26H8C9.105 26 10 25.105 10 24V18C10 16.895 9.105 16 8 16H6.742C6.278 17.386 6 18.897 6 20.5C6 22.5 6.422 24.363 7.127 26ZM2 18V24C2 25.105 2.895 26 4 26H4.944C4.351 24.338 4 22.481 4 20.5C4 18.907 4.235 17.399 4.628 16H4C2.895 16 2 16.895 2 18ZM25.258 16H24C22.895 16 22 16.895 22 18V24C22 25.105 22.895 26 24 26H24.873C25.578 24.363 26 22.5 26 20.5C26 18.897 25.722 17.386 25.258 16ZM30 18C30 16.895 29.105 16 28 16H27.371C27.765 17.399 28 18.907 28 20.5C28 22.481 27.649 24.338 27.056 26H28C29.105 26 30 25.105 30 24V18Z"
    fill="white" />
</svg>
