<svg width="13" height="19" viewBox="0 0 13 19" fill="none" xmlns="http://www.w3.org/2000/svg">
  <path fill-rule="evenodd" clip-rule="evenodd"
    d="M9.45455 19H3.54545C1.58718 19 0 17.4052 0 15.4375V13.0625C0 11.5027 1.00395 10.1917 2.39259 9.709C1.63623 8.68359 1.18182 7.36963 1.18182 5.9375C1.18182 2.65822 3.56259 0 6.5 0C9.43682 0 11.8182 2.65822 11.8182 5.9375C11.8182 7.36963 11.3638 8.68359 10.6074 9.709C11.996 10.1917 13 11.5027 13 13.0625V15.4375C13 17.4052 11.4128 19 9.45455 19ZM10.6364 5.9375C10.6364 3.31431 8.78445 1.1875 6.5 1.1875C4.21555 1.1875 2.36364 3.31431 2.36364 5.9375C2.36364 8.56069 4.21555 10.6875 6.5 10.6875C8.78445 10.6875 10.6364 8.56069 10.6364 5.9375ZM11.8182 13.3594C11.8182 12.0971 10.865 11.0455 9.58691 10.7659C8.71591 11.4618 7.65227 11.875 6.5 11.875C5.34773 11.875 4.28409 11.4618 3.41309 10.7659C2.13495 11.0455 1.18182 12.0971 1.18182 13.3594V15.1406C1.18182 16.6161 2.48064 17.8125 4.08259 17.8125H8.91741C10.5194 17.8125 11.8182 16.6161 11.8182 15.1406V13.3594Z"
    fill="white" />
</svg>
