<svg width="15" height="19" viewBox="0 0 15 19" fill="none" xmlns="http://www.w3.org/2000/svg">
  <path fill-rule="evenodd" clip-rule="evenodd"
    d="M7.5 19C3.35769 19 0 15.5444 0 11.2812C0 9.51841 0.770769 7.34528 2.30769 6.53125C2.30769 6.53125 2.58288 9.46081 4.03846 10.6875C4.21154 8.721 2.86558 2.24616 8.65385 0C8.65385 3.61772 8.57942 6.12928 10.3846 8.3125C10.2213 6.97538 10.6846 4.87053 13.2144 4.12834C13.1925 7.57922 15 8.74772 15 11.2812C15 15.5444 11.6423 19 7.5 19ZM12.2694 6.21478C11.3804 6.61556 11.3573 8.78809 11.5552 10.0938C8.09885 9.45487 7.32404 5.08072 7.58769 1.82459C4.60269 3.89559 5.24481 9.88713 5.36827 12.3328C2.53673 12.5014 1.66962 9.28209 1.73077 8.90625C1.17173 9.55581 1.15385 10.2285 1.15385 11.0586C1.15385 14.63 4.12442 17.8125 7.78846 17.8125C10.5294 17.8125 13.8023 14.8527 13.8023 11.3715C13.8023 9.44894 12.3646 8.21513 12.2694 6.21478Z"
    fill="white" />
</svg>
