<svg width="32" height="32" viewBox="0 0 32 32" fill="none" xmlns="http://www.w3.org/2000/svg">
  <path fill-rule="evenodd" clip-rule="evenodd"
    d="M28 32H4C1.791 32 0 30.209 0 28V4C0 1.791 1.791 0 4 0H28C30.209 0 32 1.791 32 4V28C32 30.209 30.209 32 28 32ZM28 30C29.105 30 30 29.105 30 28V19.999L24 13.999L15.463 22.535L22.832 30H28ZM2 28C2 29.105 2.895 30 4 30H20.001L9.945 19.945L2 27.06V28ZM30 4C30 2.896 29.105 2 28 2H4C2.895 2 2 2.896 2 4V24.336L10 17L14.058 21.111L24 11L30 17.128V4ZM8 12C5.791 12 4 10.209 4 8C4 5.791 5.791 4 8 4C10.209 4 12 5.791 12 8C12 10.209 10.209 12 8 12ZM8 6C6.895 6 6 6.896 6 8C6 9.105 6.895 10 8 10C9.105 10 10 9.105 10 8C10 6.896 9.105 6 8 6Z"
    fill="#C6C6C6" />
</svg>
