<svg width="39" height="38" viewBox="0 0 39 38" fill="none" xmlns="http://www.w3.org/2000/svg">
  <path fill-rule="evenodd" clip-rule="evenodd"
    d="M37.6463 11.0869L28.8905 19.618C27.5697 20.905 25.2481 20.6819 23.5632 20.2493L35.1447 8.64944C36.1328 7.68665 34.882 5.95606 33.8938 4.99326C32.9057 4.03047 31.1295 2.81174 30.1414 3.77453L18.1972 15.0197C17.7519 13.3793 17.563 11.1551 18.8839 9.86817L27.6397 1.33708C29.6148 -0.588507 33.6124 -0.364261 35.5887 1.56011L37.3774 3.30411C39.3525 5.22848 39.6214 9.16131 37.6463 11.0869ZM23.5145 15.0868C24.0085 15.5682 24.0085 16.3481 23.5145 16.8295L17.2541 22.9305C16.76 23.4119 15.9582 23.4119 15.4654 22.9305C14.9713 22.4491 14.9713 21.6679 15.4654 21.1877L21.7258 15.0868C22.2199 14.6054 23.0204 14.6054 23.5145 15.0868ZM5.12479 33.024C6.11294 33.9868 7.88912 35.2055 8.87727 34.2427L20.7814 22.9585C21.2267 24.6001 21.4556 26.8621 20.1347 28.1491L11.3789 36.6802C9.40262 38.6057 5.3662 38.3437 3.39114 36.4181L1.6012 34.6754C-0.373856 32.7498 -0.604009 28.8559 1.3723 26.9303L10.1281 18.3993C11.449 17.1123 13.7305 17.2963 15.4154 17.7302L3.87396 29.3678C2.8858 30.3306 4.13663 32.0612 5.12479 33.024Z"
    fill="#C6C6C6" />
</svg>
