<svg width="122" height="31" viewBox="0 0 122 31" fill="none" xmlns="http://www.w3.org/2000/svg">
  <path
    d="M13.5536 15.8149C11.2157 14.0334 9.33642 12.6276 7.89311 11.5978C6.92088 13.7627 4.61559 15.6796 0.977243 17.3485C0.661518 16.8674 0.338276 16.4088 0 15.9653C3.86387 14.4618 6.1441 12.5474 6.8407 10.2221H0.30069V8.81639H7.21656C7.44297 7.57598 7.56368 6.31859 7.57739 5.05776H3.56318C2.88406 6.00621 2.12991 6.89861 1.308 7.72638C0.975608 7.36477 0.624313 7.02101 0.255587 6.69652C2.09383 5.07649 3.49713 3.02193 4.33745 0.720306L5.76573 1.0661C5.29966 2.10348 4.87118 2.97548 4.47276 3.67459H13.7641V5.06528H9.13346C9.12792 6.32583 9.01221 7.58349 8.78767 8.8239H14.6962V10.2371H8.42684C8.42155 10.3107 8.40107 10.3824 8.3667 10.4476C10.7321 12.0212 12.7768 13.4169 14.5008 14.6347L13.5536 15.8149ZM4.76594 16.9049H24.183V29.9323H22.5743V28.5492H6.36711V29.9323H4.76594V16.9049ZM6.36711 18.3483V22.0392H22.5743V18.3483H6.36711ZM6.36711 23.445V27.0908H22.5743V23.4374L6.36711 23.445ZM16.3801 3.33631H27.0847V14.1912H16.3801V3.33631ZM17.9211 4.79465V12.7479H25.5812V4.79465H17.9211Z"
    fill="white" />
  <path
    d="M44.5323 20.4606L51.7789 18.1228H33.2639V16.7095H55.3195V18.2882L46.1635 21.483V22.2347H59.5067V23.6705H46.1635V26.3391C46.2537 28.6194 45.0936 29.7595 42.683 29.7595H41.0368H38.7816C38.7159 29.1854 38.6053 28.6174 38.4508 28.0606C39.5709 28.1433 40.8338 28.1809 42.2095 28.1809C42.8442 28.2653 43.4875 28.1098 44.0136 27.7449C44.2078 27.5332 44.3529 27.2813 44.4387 27.0071C44.5244 26.733 44.5487 26.4433 44.5097 26.1587V23.663H30.5728V22.2272H44.5323V20.4606ZM30.9185 4.53911H44.7127C44.3594 3.45662 43.961 2.39669 43.555 1.34428L45.1788 0.878204C45.6148 2.08096 46.0332 3.30127 46.4342 4.53911H59.2511V5.98242H30.9185V4.53911ZM34.9703 8.47063H54.8986V14.1011H34.9703V8.47063ZM36.579 9.8989V12.6577H53.3275V9.86884L36.579 9.8989Z"
    fill="white" />
  <path
    d="M64.671 19.1752H86.907V27.0909H90.2296V28.5116H61.3934V27.0909H64.671V19.1752ZM82.4493 3.78738H69.3091C69.4143 10.2522 67.1767 15.0131 62.5962 18.0702C62.3068 17.6964 61.9793 17.3538 61.619 17.0478L61.4686 16.9125C65.7935 14.1111 67.8808 9.7235 67.7305 3.74979H62.9119V2.42676H84.2684L83.4115 7.46331H88.9366C88.8514 9.21233 88.7111 11.0641 88.5157 13.0186C88.3503 15.4617 87.1926 16.6569 85.0352 16.6193C84.3812 16.6193 83.3814 16.6193 82.0283 16.6193C81.9681 16.251 81.8629 15.7473 81.6975 15.1159C81.6958 15.0883 81.6958 15.0607 81.6975 15.0332C82.2613 15.0933 83.3062 15.1159 84.8397 15.1159C84.9298 15.1233 85.0203 15.1233 85.1104 15.1159C86.2605 15.1159 86.892 14.2664 87.0122 12.575C87.1626 11.3422 87.2603 10.0868 87.2979 8.81642H81.6374L82.4493 3.78738ZM66.2571 20.5509V27.0909H71.5192V20.5509H66.2571ZM70.4442 11.3046L71.3613 10.1996C71.7823 10.4401 72.5415 10.8912 73.6165 11.5602L75.7664 12.8382C77.1273 11.6911 78.2706 10.3084 79.1417 8.75628H70.0082V7.40317H80.833V8.90662C79.8773 10.7012 78.63 12.3245 77.1421 13.7101C78.851 14.7626 80.1039 15.5469 80.9007 16.0631L79.931 17.3184L77.6307 15.815L75.8792 14.6949C73.8271 16.0683 71.5962 17.1534 69.249 17.9198C68.9558 17.4162 68.6777 16.9802 68.407 16.5968C70.5429 15.9323 72.5882 15.0057 74.496 13.8379C72.8272 12.8081 71.4741 11.9586 70.4442 11.3046ZM73.0602 20.5208V27.0909H78.4275V20.5509L73.0602 20.5208ZM85.3735 20.5208H79.961V27.0909H85.3735V20.5208Z"
    fill="white" />
  <path
    d="M93.8529 12.3721C93.4413 11.9497 93.0018 11.5554 92.5374 11.1918C95.4833 8.20459 97.8128 4.66696 99.3931 0.780457L101.039 1.2766C100.508 2.48938 100.007 3.52425 99.5359 4.38122H119.833V5.88467H109.218V11.8233H119.306V13.3267H109.218V20.393H121.148V21.8964H109.218V30.015H107.519V21.8964H92.0713V20.393H96.9049V11.8308H107.519V5.89219H98.6564C97.2826 8.21174 95.6729 10.3832 93.8529 12.3721ZM98.5662 13.3343V20.4005H107.519V13.3343H98.5662Z"
    fill="white" />
</svg>
