<svg width="254" height="35" viewBox="0 0 254 35" fill="none" xmlns="http://www.w3.org/2000/svg">
  <path
    d="M4.19429 34.1133H0.112427V1.39069H4.78816C6.89814 1.3504 9.00538 1.56239 11.0651 2.02214C12.5307 2.33739 13.9137 2.95718 15.1244 3.84132C16.1053 4.60267 16.8614 5.6159 17.3119 6.77304C17.7886 8.07994 18.018 9.46411 17.9884 10.8549C18.032 12.3571 17.7284 13.8491 17.1014 15.2149C16.5471 16.4053 15.7048 17.4387 14.6508 18.2218C13.5636 19.0159 12.3333 19.5928 11.0275 19.9207C9.55357 20.2944 8.0376 20.4763 6.51712 20.462H4.19429V34.1133ZM4.19429 16.756H5.49478C6.59942 16.7628 7.70288 16.6824 8.79485 16.5154C9.73593 16.3678 10.6487 16.0762 11.5011 15.6509C12.3151 15.2432 12.9938 14.6088 13.4555 13.8242C13.982 12.8926 14.2421 11.8342 14.2073 10.7647C14.2643 9.70967 14.0023 8.6619 13.4555 7.7578C12.9461 6.98826 12.2295 6.37846 11.3883 5.99877C10.5073 5.60845 9.57193 5.35495 8.61444 5.24704C7.52717 5.11259 6.43246 5.04731 5.33692 5.05159H4.19429V16.756Z"
    fill="white" />
  <path
    d="M41.9459 34.1133H36.9995L27.3399 20.2665H25.671V34.1133H21.5967V1.39069H26.543C28.1732 1.37623 29.8026 1.4641 31.4217 1.6538C32.7452 1.82004 34.0226 2.24671 35.1804 2.90918C36.5126 3.69103 37.6007 4.82856 38.3226 6.19422C39.0806 7.57646 39.4763 9.12813 39.4727 10.7046C39.5197 12.9466 38.7503 15.1292 37.3077 16.8462C35.8751 18.5516 33.8334 19.6305 31.6172 19.8531L41.9459 34.1133ZM25.671 16.8838H26.979C28.0813 16.8944 29.1826 16.8139 30.2716 16.6432C31.2162 16.5006 32.1322 16.2088 32.9853 15.7787C33.7993 15.371 34.4781 14.7366 34.9398 13.952C35.467 13.0207 35.7271 11.9621 35.6915 10.8925C35.7421 9.83809 35.4806 8.79217 34.9398 7.8856C34.4391 7.10216 33.7243 6.47866 32.8801 6.08898C31.9955 5.67244 31.0525 5.39358 30.0837 5.26208C29.0051 5.11346 27.9174 5.04062 26.8287 5.04408H25.671V16.8838Z"
    fill="white" />
  <path
    d="M66.6024 2.02217C68.6527 2.88351 70.5163 4.13444 72.09 5.70562C73.6657 7.28482 74.926 9.14977 75.8036 11.2007C76.6965 13.2705 77.1545 15.5016 77.1491 17.7558C77.1616 20.0569 76.7116 22.3372 75.8261 24.4612C74.9728 26.5109 73.7178 28.3691 72.1351 29.9262C70.5597 31.4746 68.6951 32.6981 66.6475 33.527C62.3857 35.2408 57.6264 35.2408 53.3646 33.527C51.316 32.7 49.451 31.4763 47.877 29.9262C46.2922 28.3708 45.037 26.5122 44.186 24.4612C43.2969 22.3382 42.8469 20.0573 42.863 17.7558C42.8539 15.5013 43.3121 13.2693 44.2086 11.2007C45.0806 9.14861 46.3387 7.2831 47.9146 5.70562C49.491 4.13423 51.3571 2.88334 53.4097 2.02217C55.4993 1.14903 57.7414 0.699432 60.0061 0.699432C62.2707 0.699432 64.5129 1.14903 66.6024 2.02217ZM65.0163 29.9939C68.1939 28.6456 70.7171 26.1063 72.0449 22.9201C72.73 21.2851 73.0777 19.5285 73.0673 17.7558C73.0776 16.009 72.7536 14.2765 72.1126 12.6516C71.5008 11.0752 70.5923 9.6309 69.4364 8.39679C68.2593 7.16671 66.8417 6.19183 65.2719 5.53272C61.9177 4.17957 58.1696 4.17957 54.8154 5.53272C53.2433 6.19169 51.8232 7.16652 50.6433 8.39679C49.474 9.62768 48.5526 11.0722 47.9296 12.6516C47.2922 14.2775 46.9682 16.0094 46.9749 17.7558C46.9619 19.4992 47.2932 21.228 47.9498 22.843C48.6064 24.4581 49.5754 25.9276 50.8012 27.1674C52.0013 28.371 53.4232 29.3309 54.9883 29.9939C56.5775 30.6539 58.2814 30.9937 60.0023 30.9937C61.7231 30.9937 63.4271 30.6539 65.0163 29.9939Z"
    fill="white" />
  <path
    d="M95.6341 7.5999C95.1278 6.65694 94.3907 5.85776 93.4916 5.27707C92.554 4.7451 91.4868 4.4848 90.4096 4.52534C89.0454 4.52 87.72 4.97859 86.6509 5.82583C86.1206 6.20435 85.6897 6.70563 85.3952 7.28685C85.1006 7.86807 84.9512 8.51195 84.9595 9.16349C84.9472 9.70573 85.0578 10.2437 85.2831 10.7371C85.5083 11.2306 85.8423 11.6666 86.26 12.0125C87.2317 12.8081 88.3326 13.4311 89.515 13.8542L91.8604 14.7638C93.0082 15.2125 94.1192 15.7504 95.183 16.3725C96.1172 16.9228 96.9699 17.6009 97.7163 18.3872C98.4488 19.1636 99.0187 20.0786 99.3927 21.0783C99.8015 22.2131 100 23.4129 99.979 24.619C99.9877 26.0125 99.7141 27.3933 99.1747 28.6783C98.6525 29.9121 97.8853 31.0271 96.9195 31.9558C95.9638 32.8835 94.8278 33.605 93.5818 34.0757C92.2803 34.5795 90.8957 34.8345 89.5 34.8274C88.2405 34.8354 86.9909 34.6058 85.8165 34.1508C84.6738 33.7124 83.6271 33.0563 82.7344 32.2189C81.8155 31.3825 81.052 30.3899 80.4793 29.2872C79.8936 28.155 79.5119 26.9285 79.3517 25.6639L83.4711 24.7994C83.4475 25.6297 83.6 26.4556 83.9188 27.2227C84.2375 27.9898 84.7152 28.6806 85.3204 29.2496C85.9178 29.8275 86.6243 30.2806 87.3987 30.5826C88.1731 30.8846 88.9998 31.0294 89.8307 31.0086C90.6458 31.0275 91.4551 30.8677 92.2018 30.5404C92.9486 30.2131 93.6146 29.7264 94.1532 29.1143C95.2872 27.8896 95.9016 26.2726 95.8671 24.6039C95.8811 23.8486 95.7288 23.0995 95.4209 22.4097C95.113 21.7198 94.6571 21.1062 94.0855 20.6123C93.5854 20.1469 93.0239 19.7523 92.4167 19.4396C91.7627 19.0938 91.0335 18.7405 90.2216 18.3947L87.9664 17.44C86.9991 17.0291 86.0577 16.5596 85.1475 16.0343C84.353 15.5638 83.6206 14.9955 82.9675 14.3429C82.3305 13.6912 81.8206 12.9264 81.464 12.0877C81.0727 11.1608 80.8806 10.1619 80.9002 9.15597C80.8775 7.95079 81.1348 6.75679 81.652 5.66796C82.1642 4.62515 82.898 3.70671 83.8019 2.97679C84.7274 2.2321 85.7789 1.65926 86.9065 1.28541C88.0666 0.894358 89.283 0.696279 90.5073 0.699061C92.2267 0.672587 93.9209 1.11434 95.4085 1.97699C96.8891 2.86208 98.1042 4.12916 98.9266 5.64541L95.6341 7.5999Z"
    fill="white" />
  <path
    d="M108.481 34.1133H104.399V1.3907H109.09C111.197 1.35036 113.302 1.56236 115.359 2.02215C116.825 2.3374 118.208 2.95719 119.419 3.84133C120.403 4.59917 121.16 5.61349 121.606 6.77306C122.083 8.07995 122.312 9.46412 122.283 10.8549C122.322 12.3567 122.018 13.8477 121.396 15.2149C120.839 16.4058 119.994 17.4392 118.938 18.2218C117.84 18.9988 116.602 19.5553 115.292 19.8606C113.818 20.2345 112.302 20.4164 110.781 20.4018H108.436L108.481 34.1133ZM108.481 16.756H109.782C110.886 16.7631 111.99 16.6827 113.082 16.5154C114.025 16.3678 114.94 16.0763 115.795 15.6509C116.606 15.2391 117.284 14.6057 117.75 13.8242C118.26 12.8875 118.506 11.8303 118.464 10.7647C118.521 9.70968 118.259 8.66191 117.712 7.75781C117.206 6.98854 116.492 6.37861 115.652 5.99878C114.769 5.60949 113.831 5.35605 112.871 5.24705C111.784 5.1126 110.689 5.04732 109.594 5.0516H108.511L108.481 16.756Z"
    fill="white" />
  <path
    d="M125.883 1.39069H143.459V5.14931H129.965V14.2828H143.105V18.0414H129.965V30.3847H143.459V34.1433H125.883V1.39069Z"
    fill="white" />
  <path
    d="M168.852 34.1133H163.906L154.269 20.2665H152.577V34.1133H148.495V1.39069H153.442C155.074 1.37626 156.706 1.46413 158.328 1.65379C159.652 1.81925 160.929 2.24597 162.087 2.90917C163.418 3.69165 164.506 4.82902 165.229 6.19421C166.132 7.87149 166.517 9.77913 166.335 11.6754C166.153 13.5717 165.412 15.3713 164.206 16.8462C162.776 18.5499 160.737 19.6286 158.523 19.8531L168.852 34.1133ZM152.577 16.8837H153.878C154.982 16.8946 156.086 16.8142 157.178 16.6432C158.122 16.498 159.037 16.2063 159.892 15.7787C160.702 15.3684 161.377 14.7345 161.838 13.952C162.366 13.0207 162.626 11.9621 162.59 10.8925C162.637 9.83843 162.376 8.79352 161.838 7.88559C161.333 7.10326 160.616 6.48028 159.771 6.08897C158.887 5.67143 157.944 5.39253 156.975 5.26207C155.896 5.11346 154.809 5.04061 153.72 5.04407H152.577V16.8837Z"
    fill="white" />
  <path
    d="M232.388 17.6204V18.9209C232.405 21.0577 232.023 23.179 231.26 25.1753C230.538 27.0633 229.447 28.7884 228.05 30.2494C226.651 31.704 224.964 32.851 223.097 33.6171C221.13 34.4251 219.021 34.8315 216.895 34.8124C214.696 34.8184 212.521 34.3599 210.513 33.4668C208.51 32.5768 206.704 31.2994 205.198 29.7082C203.683 28.1195 202.475 26.2641 201.635 24.2356C200.788 22.1988 200.353 20.0142 200.357 17.8084C200.348 15.5462 200.79 13.305 201.657 11.2157C202.506 9.15905 203.744 7.28556 205.303 5.69807C206.863 4.12609 208.718 2.87697 210.761 2.02213C212.84 1.13634 215.078 0.686058 217.338 0.699097C219.898 0.696374 222.425 1.26659 224.735 2.36793C227.044 3.44489 229.072 5.04285 230.659 7.03614L227.795 9.7649C226.595 8.13846 225.036 6.81101 223.239 5.886C221.482 4.94153 219.521 4.44089 217.526 4.42765C215.766 4.41258 214.021 4.75794 212.399 5.44248C210.823 6.10135 209.398 7.07606 208.212 8.30656C205.791 10.8347 204.444 14.2027 204.454 17.7031C204.454 19.3925 204.786 21.0653 205.431 22.6269C206.073 24.2201 206.998 25.6843 208.16 26.9493C209.32 28.2085 210.714 29.2298 212.264 29.9562C213.795 30.6858 215.47 31.0634 217.165 31.0613C218.47 31.0566 219.761 30.8014 220.969 30.3096C222.226 29.8027 223.385 29.083 224.397 28.1822C225.404 27.2923 226.248 26.2342 226.893 25.055C227.52 23.9186 227.86 22.6466 227.885 21.349H219.413V17.5904L232.388 17.6204Z"
    fill="white" />
  <path d="M236.425 1.39069H254V5.14931H240.507V14.2828H253.609V18.0414H240.507V30.3847H254V34.1433H236.425V1.39069Z"
    fill="white" />
  <path d="M184.217 0L168.589 34.1133H172.972L184.217 8.94553L195.456 34.1133H199.838L184.217 0Z" fill="white" />
  <path d="M60.0017 12.4327L54.6755 17.7588L60.0017 23.085L65.3278 17.7588L60.0017 12.4327Z" fill="white" />
</svg>
