<svg width="32" height="24" viewBox="0 0 32 24" fill="none" xmlns="http://www.w3.org/2000/svg">
  <path fill-rule="evenodd" clip-rule="evenodd"
    d="M28 24H4C1.791 24 0 22.209 0 20V4C0 1.791 1.791 0 4 0H28C30.209 0 32 1.791 32 4V20C32 22.209 30.209 24 28 24ZM28.445 21.946L19.273 12.314L16 14.915L12.58 12.33L3.555 21.946C3.699 21.979 28.301 21.979 28.445 21.946ZM2 20C2 20.203 2.039 20.394 2.095 20.578L11 11L2 4V20ZM3 2L16 12L29 2H3ZM30 4L21 11L29.905 20.578C29.961 20.394 30 20.203 30 20V4Z"
    fill="white" />
</svg>
