<svg width="26" height="26" viewBox="0 0 26 26" fill="none" xmlns="http://www.w3.org/2000/svg">
  <path
    d="M11.6071 20.903C11.6071 21.6723 12.2307 22.2959 13 22.2959C13.7693 22.2959 14.3929 21.6723 14.3929 20.903C14.3929 20.1338 13.7693 19.5102 13 19.5102C12.2307 19.5102 11.6071 20.1338 11.6071 20.903Z"
    fill="white" />
  <path
    d="M13 26C5.83143 26 0 20.1686 0 13C0 5.83143 5.83143 0 13 0C20.1686 0 26 5.83143 26 13C26 20.1686 20.1686 26 13 26ZM13 1.86547C6.86029 1.86547 1.86547 6.86029 1.86547 13C1.86547 19.1388 6.86029 24.1345 13 24.1345C19.1388 24.1345 24.1345 19.1388 24.1345 13C24.1345 6.86029 19.1388 1.86547 13 1.86547Z"
    fill="white" />
  <path
    d="M13 17.692C12.4874 17.692 12.0714 17.276 12.0714 16.7635V15.1933C12.0714 13.6741 13.2321 12.5134 14.2573 11.4892C15.0084 10.7371 15.7857 9.96079 15.7857 9.34143C15.7857 7.7935 14.5358 6.53436 13 6.53436C11.4382 6.53436 10.2143 7.73964 10.2143 9.27829C10.2143 9.79086 9.79832 10.2068 9.28572 10.2068C8.77312 10.2068 8.35715 9.79083 8.35715 9.27826C8.35715 6.74143 10.4399 4.67722 13 4.67722C15.5601 4.67722 17.6429 6.76929 17.6429 9.34143C17.6429 10.7315 16.5889 11.7845 15.5703 12.8031C14.7624 13.6091 13.9286 14.443 13.9286 15.1923V16.7625C13.9286 17.2751 13.5126 17.692 13 17.692Z"
    fill="white" />
</svg>
