<svg width="27" height="24" viewBox="0 0 27 24" fill="none" xmlns="http://www.w3.org/2000/svg">
  <path
    d="M24.2997 14.7696C24.1815 14.7695 24.0645 14.7933 23.9553 14.8396C23.8461 14.886 23.7469 14.9539 23.6633 15.0396C23.5797 15.1254 23.5135 15.2271 23.4683 15.3391C23.4231 15.4511 23.3999 15.5712 23.4 15.6924V19.3844C23.3989 20.1185 23.1141 20.8223 22.608 21.3413C22.1019 21.8604 21.4158 22.1525 20.7 22.1536H6.29996C5.58422 22.1525 4.8981 21.8604 4.392 21.3413C3.88589 20.8223 3.60109 20.1185 3.60002 19.3844V15.6924C3.60002 15.5712 3.57674 15.4511 3.53151 15.3391C3.48627 15.2271 3.41997 15.1253 3.33639 15.0396C3.25281 14.9539 3.15359 14.8859 3.04438 14.8395C2.93518 14.7931 2.81813 14.7692 2.69993 14.7692C2.58173 14.7692 2.46469 14.7931 2.35548 14.8395C2.24628 14.8859 2.14705 14.9539 2.06347 15.0396C1.97989 15.1253 1.91359 15.2271 1.86836 15.3391C1.82312 15.4511 1.79984 15.5712 1.79984 15.6924V19.3844C1.80145 20.608 2.27608 21.7811 3.11967 22.6463C3.96326 23.5115 5.10694 23.9984 6.29996 24H20.7C21.8931 23.9984 23.0367 23.5115 23.8803 22.6463C24.7239 21.7811 25.1985 20.608 25.2002 19.3844V15.6924C25.2002 15.5711 25.177 15.451 25.1318 15.339C25.0866 15.2269 25.0202 15.1251 24.9366 15.0394C24.8529 14.9537 24.7536 14.8857 24.6444 14.8394C24.5351 14.7931 24.418 14.7694 24.2997 14.7696ZM20.7 0.000694275H6.29996C5.10718 0.00252533 3.96377 0.489323 3.12034 1.35438C2.27692 2.21944 1.8023 3.39219 1.80052 4.61557V8.30761C1.80052 8.55246 1.89535 8.78727 2.06415 8.9604C2.23295 9.13353 2.46189 9.2308 2.70061 9.2308C2.93933 9.2308 3.16827 9.13353 3.33707 8.9604C3.50587 8.78727 3.6007 8.55246 3.6007 8.30761V4.61557C3.60177 3.88147 3.88657 3.17775 4.39267 2.65866C4.89878 2.13957 5.58489 1.84747 6.30063 1.84637H20.7C21.4158 1.84747 22.1019 2.13957 22.608 2.65866C23.1141 3.17775 23.3989 3.88147 23.4 4.61557V8.30761C23.4 8.55246 23.4948 8.78727 23.6636 8.9604C23.8324 9.13353 24.0613 9.2308 24.3001 9.2308C24.5388 9.2308 24.7677 9.13353 24.9365 8.9604C25.1053 8.78727 25.2002 8.55246 25.2002 8.30761V4.61557C25.1985 3.39195 24.7239 2.21892 23.8803 1.35369C23.0367 0.488461 21.8931 0.00164986 20.7 0V0.000694275ZM26.0999 11.0775H0.90009C0.661371 11.0775 0.43243 11.1748 0.26363 11.3479C0.0948307 11.521 0 11.7558 0 12.0007C0 12.2455 0.0948307 12.4804 0.26363 12.6535C0.43243 12.8266 0.661371 12.9239 0.90009 12.9239H26.0999C26.3386 12.9239 26.5676 12.8266 26.7364 12.6535C26.9052 12.4804 27 12.2455 27 12.0007C27 11.7558 26.9052 11.521 26.7364 11.3479C26.5676 11.1748 26.3386 11.0775 26.0999 11.0775Z"
    fill="#C6C6C6" />
</svg>
