<svg width="25" height="26" viewBox="0 0 25 26" fill="none" xmlns="http://www.w3.org/2000/svg">
  <path
    d="M24.6494 23.9079L19.9887 19.1754C21.7736 17.0688 22.7511 14.414 22.7511 11.6004C22.7511 8.49833 21.5611 5.59822 19.422 3.40511C17.2829 1.21199 14.4213 0 11.3897 0C8.34396 0 5.49653 1.21199 3.34325 3.39068C1.18997 5.5838 0 8.49833 0 11.6004C0 14.7026 1.18997 17.6027 3.32908 19.7958C5.48236 21.9889 8.34396 23.1865 11.3755 23.1865C13.883 23.1865 16.2771 22.364 18.2462 20.8491L22.9494 25.6393C23.1761 25.8701 23.4877 26 23.7994 26C24.1111 26 24.4086 25.8846 24.6494 25.6393C25.1169 25.1632 25.1169 24.384 24.6494 23.9079ZM2.39411 11.6004C2.39411 6.5505 6.43151 2.45283 11.3755 2.45283C16.3338 2.45283 20.357 6.56493 20.357 11.6004C20.357 16.6504 16.3338 20.7481 11.3755 20.7481C6.41734 20.7481 2.39411 16.636 2.39411 11.6004Z"
    fill="#E24B4B" />
</svg>
