<svg width="21" height="21" viewBox="0 0 21 21" fill="none" xmlns="http://www.w3.org/2000/svg">
  <path fill-rule="evenodd" clip-rule="evenodd"
    d="M11.8923 17.7823C11.7157 17.6121 11.638 17.469 11.6652 17.2479C11.6652 17.2479 11.6652 13.1937 11.6652 12.7507C6.53251 12.7507 1.89054 16.3117 0.968989 21C0.348401 19.6261 0 18.1113 0 16.5171C0 10.3005 5.22834 5.26148 11.6784 5.26148V0.840779C11.652 0.61967 11.715 0.390315 11.8923 0.220922C12.2002 -0.0736408 12.6995 -0.0736408 13.0075 0.220922L20.7757 8.42972C20.9398 8.58712 21.0098 8.79549 20.9989 9.00161C21.0098 9.20698 20.9398 9.41609 20.7757 9.57349L13.0502 17.7373C12.7617 17.9749 12.2321 18.1098 11.8923 17.7823Z"
    fill="#C6C6C6" />
</svg>
