<svg width="47" height="38" viewBox="0 0 47 38" fill="none" xmlns="http://www.w3.org/2000/svg">
  <path
    d="M31.8165 11.4973C32.3572 11.4973 32.8905 11.537 33.4187 11.5946C31.9798 4.94312 24.814 0 16.6353 0C7.49099 0 0 6.18691 0 14.0424C0 18.5762 2.49274 22.2998 6.6567 25.1879L4.99316 30.156L10.8079 27.2609C12.8899 27.6691 14.5585 28.09 16.6353 28.09C17.1571 28.09 17.6737 28.0645 18.1879 28.0236C17.8625 26.9206 17.6737 25.7638 17.6737 24.5648C17.6738 17.3516 23.9146 11.4973 31.8165 11.4973ZM22.8736 7.01998C24.1263 7.01998 24.9555 7.83891 24.9555 9.08143C24.9555 10.3188 24.1263 11.148 22.8736 11.148C21.6259 11.148 20.3757 10.3188 20.3757 9.08143C20.3757 7.83891 21.626 7.01998 22.8736 7.01998ZM11.2314 11.1479C9.98373 11.1479 8.72587 10.3188 8.72587 9.08138C8.72587 7.83885 9.98373 7.01992 11.2314 7.01992C12.4777 7.01992 13.3083 7.83885 13.3083 9.08138C13.3083 10.3188 12.4777 11.1479 11.2314 11.1479ZM47 24.3664C47 17.7649 40.3446 12.3841 32.8702 12.3841C24.9555 12.3841 18.7224 17.7649 18.7224 24.3664C18.7224 30.9775 24.9555 36.3468 32.8702 36.3468C34.526 36.3468 36.1972 35.9347 37.8607 35.5202L42.4241 38L41.1725 33.8745C44.5125 31.387 47 28.09 47 24.3664ZM28.2826 22.2998C27.4547 22.2998 26.6191 21.4821 26.6191 20.6478C26.6191 19.8251 27.4547 18.9971 28.2826 18.9971C29.5405 18.9971 30.3646 19.8251 30.3646 20.6478C30.3646 21.4821 29.5405 22.2998 28.2826 22.2998ZM37.4321 22.2998C36.6106 22.2998 35.7801 21.4821 35.7801 20.6478C35.7801 19.8251 36.6106 18.9971 37.4321 18.9971C38.6798 18.9971 39.514 19.8251 39.514 20.6478C39.514 21.4821 38.6798 22.2998 37.4321 22.2998Z"
    fill="#4FA21E" />
</svg>
