<svg width="31" height="32" viewBox="0 0 31 32" fill="none" xmlns="http://www.w3.org/2000/svg">
  <path fill-rule="evenodd" clip-rule="evenodd"
    d="M26 26.328V32L20.395 28.549C19.617 28.676 18.819 28.75 18 28.75C14.149 28.75 11.38 27.327 9 25C9 25 10.853 25 12 25C20.716 25 27 19.474 27 11.5C27 10.743 27.008 10.817 27 10L26.949 9.138C29.44 11.211 31 14.13 31 17.375C31 21.014 29.039 24.246 26 26.328ZM13 23C12.181 23 10.414 22.863 9.637 22.737L4 26V20.329C1.387 18.104 0 15.014 0 11.375C0 5.093 5.81 0 13 0C18.977 0 25 5.093 25 11.375C25 17.657 20.18 23 13 23ZM6.5 10C5.672 10 5 10.672 5 11.5C5 12.329 5.672 13 6.5 13C7.328 13 8 12.329 8 11.5C8 10.672 7.328 10 6.5 10ZM12.5 10C11.672 10 11 10.672 11 11.5C11 12.329 11.672 13 12.5 13C13.328 13 14 12.329 14 11.5C14 10.672 13.328 10 12.5 10ZM18.5 10C17.672 10 17 10.672 17 11.5C17 12.329 17.672 13 18.5 13C19.328 13 20 12.329 20 11.5C20 10.672 19.328 10 18.5 10Z"
    fill="#C6C6C6" />
</svg>
