<svg width="32" height="32" viewBox="0 0 32 32" fill="none" xmlns="http://www.w3.org/2000/svg">
  <path fill-rule="evenodd" clip-rule="evenodd"
    d="M31.396 6.909L28 10.307V7.495L29.289 6.206C29.677 5.818 29.677 5.188 29.289 4.8L27.181 2.691C26.793 2.303 26.164 2.303 25.776 2.691L24.459 4.009H21.649L25.074 0.582C25.85 -0.194 27.108 -0.194 27.884 0.582L31.396 4.097C32.172 4.873 32.172 6.132 31.396 6.909ZM14.536 20.968C13.219 19.65 11.397 17.827 11.024 17.453L22.239 6.231L25.776 9.721L14.536 20.968ZM7.414 25.282C6.924 25.509 6.485 25.039 6.713 24.58L9.965 19.205L12.786 22.028L7.414 25.282ZM9.11 17.077L4.81 25.783C4.449 26.763 5.233 27.641 6.212 27.186L14.912 22.883C15.287 22.81 15.651 22.664 15.941 22.374L28 10.307V29.209C28 30.755 26.746 32.009 25.2 32.009H2.8C1.253 32.009 0 30.755 0 29.209V6.809C0 5.262 1.253 4.009 2.8 4.009H21.649L9.619 16.047C9.329 16.338 9.183 16.702 9.11 17.077ZM23.719 4.75L24.459 4.009H25.2C26.746 4.009 28 5.262 28 6.809V7.495L27.181 8.315L23.719 4.75Z"
    fill="#C6C6C6" />
</svg>
