<svg width="32" height="32" viewBox="0 0 32 32" fill="none" xmlns="http://www.w3.org/2000/svg">
  <path fill-rule="evenodd" clip-rule="evenodd"
    d="M31 20H25C24.448 20 24 19.552 24 19C24 18.448 24.448 18 25 18H31C31.552 18 32 18.448 32 19C32 19.552 31.552 20 31 20ZM31 14H23C22.448 14 22 13.552 22 13C22 12.448 22.448 12 23 12H31C31.552 12 32 12.448 32 13C32 13.552 31.552 14 31 14ZM31 8H23C22.448 8 22 7.552 22 7C22 6.448 22.448 6 23 6H31C31.552 6 32 6.448 32 7C32 7.552 31.552 8 31 8ZM22 26C22 29.314 19.314 32 16 32H6C2.686 32 0 29.314 0 26V22C0 20.091 0.904 18.411 2.297 17.319C4.308 20.161 7.454 22 11 22C14.546 22 17.692 20.161 19.703 17.319C21.096 18.411 22 20.091 22 22V26ZM11 20C6.029 20 2 15.523 2 10C2 4.477 6.029 0 11 0C15.97 0 20 4.477 20 10C20 15.523 15.97 20 11 20ZM25 24H31C31.552 24 32 24.448 32 25C32 25.552 31.552 26 31 26H25C24.448 26 24 25.552 24 25C24 24.448 24.448 24 25 24Z"
    fill="#C6C6C6" />
</svg>
