<svg width="28" height="32" viewBox="0 0 28 32" fill="none" xmlns="http://www.w3.org/2000/svg">
  <path fill-rule="evenodd" clip-rule="evenodd"
    d="M3.844 4.027C1.728 4.027 0 5.941 0 8V28C0 30.059 1.884 32 4 32H19C21.116 32 23 30.059 23 28H24C26.116 28 28 26.059 28 24V10V8.024L21 0.031C20.876 0.031 9 0 9 0C6.884 0 5 1.941 5 4L3.844 4.027ZM5 6V24C5 26.059 6.884 28 9 28C9 28 19.842 27.989 21.009 27.989C21.009 29.202 20.213 30 19 30H4C2.95 30 2 29.019 2 28V8C2 6.512 3.223 6 5 6ZM21 2.029V2.031C21 3.974 21 6 21 6C21 7.039 21.935 8 23 8H26L21 2.029ZM21 21.011H12C11.448 21.011 11 20.563 11 20.012C11 19.46 11.448 19.013 12 19.013H21C21.552 19.013 22 19.46 22 20.012C22 20.563 21.552 21.011 21 21.011ZM21 16.016H12C11.448 16.016 11 15.568 11 15.017C11 14.465 11.448 14.017 12 14.017H21C21.552 14.017 22 14.465 22 15.017C22 15.568 21.552 16.016 21 16.016Z"
    fill="#E24B4B" />
</svg>
